<svg xmlns="http://www.w3.org/2000/svg" viewBox="0 0 862.19 921.29"><g id="Layer_2" data-name="Layer 2"><g id="Layer_2-2" data-name="Layer 2"><path d="M97.51,784.33A430.93,430.93,0,0,1,415.84,80.45c-1.52,2-8.59,11.31-8.59,11.31C346.25,172,307.2,227.41,265.34,304.52a357,357,0,0,0-81.85,51.57c-8.28,6.88-16,14-23.08,21.09C65.65,472.84,43.21,629.94,97.51,784.33Z"/><path d="M779.69,257.61a432.32,432.32,0,0,0-199-150.74c-4.13,7.83-8.33,15.93-12.72,24.51a1103,1103,0,0,0-68.74,166.4,217.2,217.2,0,0,1,24,12.11c45.52,26.63,79.25,68.29,95,117.29,28.9,90.08-23,206.19-106.78,238.93-22.31,8.72-44.35,14.38-64.61,16.64a133.48,133.48,0,0,1-4.69,42.56c-7.34,26.14-21.22,43.51-31.38,56.23-8.17,10.23-13.57,17-17.11,28.12a77.74,77.74,0,0,0-3.55,20.12c-1.27,30.06,15.5,64.51,39,80.13,9.34,6.2,21.45,9.88,36,10.92,4.26.31,8.68.46,13.14.46,25.22,0,53.83-4.95,87.46-15.14,32.21-9.76,65.72-24.78,99.59-44.65,40.83-24,79.84-51.08,108.82-89.11a431.21,431.21,0,0,0,5.55-514.78ZM710.5,334a36.26,36.26,0,1,1-34.29,38.12A36.26,36.26,0,0,1,710.5,334Zm-102.38-65.1a30.23,30.23,0,1,1,31.78,28.59A30.22,30.22,0,0,1,608.12,268.88Zm58.93,475.27a53.87,53.87,0,1,1,51-56.64A53.88,53.88,0,0,1,667.05,744.15Zm69.56-176a46.38,46.38,0,1,1,43.87-48.77A46.39,46.39,0,0,1,736.61,568.17Z"/><path d="M568.72,3.19c-1.46-2.78-7.45-4-12.26-2.57-15.67,4.78-28,17.77-38.39,29.79l-.16.18q-2.56,3-5,6C497.27,55.82,462,102.32,447.05,122,383.73,205.29,342.16,263.91,294.1,357.1q-16.71,32.47-31,66.14c-9.28,22-17.75,44.66-20.35,68.39s1.13,48.88,14.59,68.59c-.69-1-34.45,29.91-38.14,34.28a167.08,167.08,0,0,0-28.43,47.85c-29,75.6,9.36,143.92,19.4,160.34,47.41,77.51,131.71,91.15,144,92.93-10.1-25-20.4-62.6-8.17-101.1,12.43-39.13,38.61-49.29,48-82.73,6.88-24.51,5.29-63.52-39.83-123.57,9-4.93,26-13.81,32.43-30.64,27.18-71.45,30.44-151.11,50.26-224.84a1140.53,1140.53,0,0,1,86.64-224.15Q538.66,79,554.59,49.87c3.93-7.16,8.27-14.12,11.44-21.67,3-7.23,6-15.92,3.25-23.7A9.38,9.38,0,0,0,568.72,3.19Z"/></g></g></svg>