<svg width="302" height="324" viewBox="0 0 302 324" fill="none" xmlns="http://www.w3.org/2000/svg">
<path d="M34.2864 275.323C16.4597 253.57 5.0669 227.265 1.39416 199.377C-2.27858 171.489 1.91503 143.129 13.5015 117.499C25.0881 91.8695 43.606 69.9905 66.9648 54.3324C90.3235 38.6742 117.593 29.8606 145.694 28.8865C145.162 29.5867 142.687 32.8462 142.687 32.8462C121.339 60.9392 107.673 80.3389 93.0226 107.336C82.6994 112.026 73.0625 118.1 64.3772 125.391C61.4794 127.8 58.7776 130.293 56.2998 132.775C23.1362 166.267 15.2828 221.269 34.2864 275.323Z" fill="url(#paint0_linear_2_48)"/>
<path d="M34.2864 275.323C16.4597 253.57 5.0669 227.265 1.39416 199.377C-2.27858 171.489 1.91503 143.129 13.5015 117.499C25.0881 91.8695 43.606 69.9905 66.9648 54.3324C90.3235 38.6742 117.593 29.8606 145.694 28.8865C145.162 29.5867 142.687 32.8462 142.687 32.8462C121.339 60.9392 107.673 80.3389 93.0226 107.336C82.6994 112.026 73.0625 118.1 64.3772 125.391C61.4794 127.8 58.7776 130.293 56.2998 132.775C23.1362 166.267 15.2828 221.269 34.2864 275.323Z" fill="white" fill-opacity="0.2"/>
<path d="M273.032 90.912C255.51 66.8515 231.285 48.494 203.387 38.1362C201.942 40.8776 200.472 43.7135 198.935 46.7175C189.343 65.4487 181.297 84.9331 174.878 104.976C177.763 106.214 180.568 107.63 183.278 109.216C199.208 118.539 211.013 133.125 216.525 150.28C226.639 181.819 208.476 222.47 179.155 233.933C171.347 236.986 163.633 238.967 156.543 239.758C156.801 244.781 156.247 249.813 154.902 254.659C152.333 263.811 147.475 269.893 143.919 274.346C141.06 277.928 139.17 280.298 137.931 284.191C137.209 286.474 136.791 288.843 136.689 291.235C136.244 301.76 142.114 313.821 150.338 319.29C153.607 321.461 157.845 322.749 162.937 323.113C164.428 323.222 165.975 323.274 167.536 323.274C176.362 323.274 186.375 321.541 198.144 317.973C209.417 314.556 221.145 309.298 232.998 302.341C247.288 293.938 260.94 284.457 271.083 271.143C290.736 245.304 301.539 213.815 301.889 181.349C302.239 148.883 292.117 117.168 273.025 90.912H273.032ZM248.817 117.657C251.324 117.524 253.813 118.138 255.971 119.42C258.129 120.703 259.858 122.597 260.94 124.863C262.022 127.129 262.408 129.664 262.049 132.15C261.69 134.635 260.602 136.958 258.924 138.824C257.245 140.691 255.051 142.018 252.618 142.637C250.186 143.257 247.624 143.14 245.258 142.303C242.892 141.466 240.827 139.945 239.324 137.934C237.821 135.923 236.949 133.511 236.817 131.003C236.639 127.642 237.804 124.347 240.054 121.844C242.305 119.341 245.457 117.835 248.817 117.657ZM212.987 94.8648C212.876 92.7744 213.388 90.698 214.457 88.8984C215.526 87.0988 217.104 85.6568 218.993 84.7547C220.881 83.8525 222.994 83.5308 225.065 83.8303C227.136 84.1297 229.072 85.0368 230.628 86.4369C232.183 87.837 233.289 89.6671 233.805 91.6959C234.321 93.7246 234.224 95.8609 233.526 97.8345C232.828 99.808 231.561 101.53 229.885 102.783C228.209 104.037 226.199 104.764 224.109 104.875C222.721 104.948 221.332 104.747 220.022 104.284C218.712 103.82 217.506 103.103 216.473 102.172C215.44 101.242 214.6 100.117 214.002 98.8621C213.404 97.6071 213.059 96.2464 212.987 94.8578V94.8648ZM233.611 261.262C229.888 261.456 226.191 260.541 222.988 258.633C219.784 256.725 217.218 253.91 215.614 250.543C214.01 247.176 213.44 243.41 213.975 239.719C214.51 236.028 216.128 232.579 218.622 229.807C221.117 227.035 224.377 225.066 227.99 224.148C231.603 223.229 235.408 223.403 238.922 224.647C242.437 225.891 245.504 228.15 247.735 231.138C249.967 234.125 251.263 237.708 251.46 241.432C251.589 243.906 251.23 246.381 250.403 248.717C249.576 251.052 248.297 253.201 246.639 255.042C244.982 256.883 242.978 258.379 240.743 259.445C238.507 260.511 236.084 261.126 233.611 261.255V261.262ZM257.955 199.643C254.749 199.812 251.565 199.027 248.806 197.386C246.046 195.745 243.835 193.322 242.452 190.424C241.069 187.526 240.575 184.283 241.034 181.104C241.494 177.926 242.885 174.955 245.032 172.567C247.178 170.18 249.985 168.483 253.096 167.691C256.207 166.899 259.483 167.047 262.509 168.117C265.536 169.188 268.178 171.132 270.1 173.704C272.022 176.276 273.139 179.361 273.308 182.568C273.535 186.869 272.045 191.084 269.166 194.286C266.287 197.488 262.254 199.415 257.955 199.643Z" fill="url(#paint1_linear_2_48)"/>
<path d="M273.032 90.912C255.51 66.8515 231.285 48.494 203.387 38.1362C201.942 40.8776 200.472 43.7135 198.935 46.7175C189.343 65.4487 181.297 84.9331 174.878 104.976C177.763 106.214 180.568 107.63 183.278 109.216C199.208 118.539 211.013 133.125 216.525 150.28C226.639 181.819 208.476 222.47 179.155 233.933C171.347 236.986 163.633 238.967 156.543 239.758C156.801 244.781 156.247 249.813 154.902 254.659C152.333 263.811 147.475 269.893 143.919 274.346C141.06 277.928 139.17 280.298 137.931 284.191C137.209 286.474 136.791 288.843 136.689 291.235C136.244 301.76 142.114 313.821 150.338 319.29C153.607 321.461 157.845 322.749 162.937 323.113C164.428 323.222 165.975 323.274 167.536 323.274C176.362 323.274 186.375 321.541 198.144 317.973C209.417 314.556 221.145 309.298 232.998 302.341C247.288 293.938 260.94 284.457 271.083 271.143C290.736 245.304 301.539 213.815 301.889 181.349C302.239 148.883 292.117 117.168 273.025 90.912H273.032ZM248.817 117.657C251.324 117.524 253.813 118.138 255.971 119.42C258.129 120.703 259.858 122.597 260.94 124.863C262.022 127.129 262.408 129.664 262.049 132.15C261.69 134.635 260.602 136.958 258.924 138.824C257.245 140.691 255.051 142.018 252.618 142.637C250.186 143.257 247.624 143.14 245.258 142.303C242.892 141.466 240.827 139.945 239.324 137.934C237.821 135.923 236.949 133.511 236.817 131.003C236.639 127.642 237.804 124.347 240.054 121.844C242.305 119.341 245.457 117.835 248.817 117.657ZM212.987 94.8648C212.876 92.7744 213.388 90.698 214.457 88.8984C215.526 87.0988 217.104 85.6568 218.993 84.7547C220.881 83.8525 222.994 83.5308 225.065 83.8303C227.136 84.1297 229.072 85.0368 230.628 86.4369C232.183 87.837 233.289 89.6671 233.805 91.6959C234.321 93.7246 234.224 95.8609 233.526 97.8345C232.828 99.808 231.561 101.53 229.885 102.783C228.209 104.037 226.199 104.764 224.109 104.875C222.721 104.948 221.332 104.747 220.022 104.284C218.712 103.82 217.506 103.103 216.473 102.172C215.44 101.242 214.6 100.117 214.002 98.8621C213.404 97.6071 213.059 96.2464 212.987 94.8578V94.8648ZM233.611 261.262C229.888 261.456 226.191 260.541 222.988 258.633C219.784 256.725 217.218 253.91 215.614 250.543C214.01 247.176 213.44 243.41 213.975 239.719C214.51 236.028 216.128 232.579 218.622 229.807C221.117 227.035 224.377 225.066 227.99 224.148C231.603 223.229 235.408 223.403 238.922 224.647C242.437 225.891 245.504 228.15 247.735 231.138C249.967 234.125 251.263 237.708 251.46 241.432C251.589 243.906 251.23 246.381 250.403 248.717C249.576 251.052 248.297 253.201 246.639 255.042C244.982 256.883 242.978 258.379 240.743 259.445C238.507 260.511 236.084 261.126 233.611 261.255V261.262ZM257.955 199.643C254.749 199.812 251.565 199.027 248.806 197.386C246.046 195.745 243.835 193.322 242.452 190.424C241.069 187.526 240.575 184.283 241.034 181.104C241.494 177.926 242.885 174.955 245.032 172.567C247.178 170.18 249.985 168.483 253.096 167.691C256.207 166.899 259.483 167.047 262.509 168.117C265.536 169.188 268.178 171.132 270.1 173.704C272.022 176.276 273.139 179.361 273.308 182.568C273.535 186.869 272.045 191.084 269.166 194.286C266.287 197.488 262.254 199.415 257.955 199.643Z" fill="white" fill-opacity="0.2"/>
<path d="M199.198 1.83669C198.687 0.863376 196.591 0.436239 194.907 0.936899C189.423 2.61043 185.108 7.15838 181.472 11.3667L181.416 11.4297C180.818 12.13 180.235 12.8302 179.666 13.5304C174.192 20.2631 161.849 36.5433 156.616 43.4335C134.456 72.5943 119.908 93.1178 103.088 125.745C99.1892 133.323 95.5728 141.042 92.2387 148.901C88.9909 156.604 86.0266 164.537 85.1167 172.845C84.2067 181.153 85.5122 189.959 90.2228 196.859C89.9813 196.509 78.1662 207.331 76.8748 208.861C72.6452 213.85 69.282 219.513 66.925 225.614C56.7758 252.083 70.2008 276.002 73.7145 281.751C90.3068 308.888 119.81 313.664 124.111 314.287C120.576 305.534 116.971 292.37 121.252 278.891C125.602 265.191 134.764 261.634 138.05 249.926C140.458 241.345 139.902 227.687 124.111 206.663C127.261 204.936 133.21 201.827 135.461 195.935C144.973 170.92 146.114 143.03 153.05 117.216C160.367 90.0616 170.53 63.7564 183.372 38.7385C186.909 31.8319 190.536 24.9791 194.253 18.1799C195.628 15.6731 197.147 13.2363 198.256 10.593C199.306 8.06167 200.356 5.0192 199.394 2.29533C199.34 2.1377 199.275 1.98438 199.198 1.83669Z" fill="url(#paint2_linear_2_48)"/>
<path d="M199.198 1.83669C198.687 0.863376 196.591 0.436239 194.907 0.936899C189.423 2.61043 185.108 7.15838 181.472 11.3667L181.416 11.4297C180.818 12.13 180.235 12.8302 179.666 13.5304C174.192 20.2631 161.849 36.5433 156.616 43.4335C134.456 72.5943 119.908 93.1178 103.088 125.745C99.1892 133.323 95.5728 141.042 92.2387 148.901C88.9909 156.604 86.0266 164.537 85.1167 172.845C84.2067 181.153 85.5122 189.959 90.2228 196.859C89.9813 196.509 78.1662 207.331 76.8748 208.861C72.6452 213.85 69.282 219.513 66.925 225.614C56.7758 252.083 70.2008 276.002 73.7145 281.751C90.3068 308.888 119.81 313.664 124.111 314.287C120.576 305.534 116.971 292.37 121.252 278.891C125.602 265.191 134.764 261.634 138.05 249.926C140.458 241.345 139.902 227.687 124.111 206.663C127.261 204.936 133.21 201.827 135.461 195.935C144.973 170.92 146.114 143.03 153.05 117.216C160.367 90.0616 170.53 63.7564 183.372 38.7385C186.909 31.8319 190.536 24.9791 194.253 18.1799C195.628 15.6731 197.147 13.2363 198.256 10.593C199.306 8.06167 200.356 5.0192 199.394 2.29533C199.34 2.1377 199.275 1.98438 199.198 1.83669Z" fill="white" fill-opacity="0.2"/>
<defs>
<linearGradient id="paint0_linear_2_48" x1="-1.39446" y1="45.1404" x2="220.104" y2="231.533" gradientUnits="userSpaceOnUse">
<stop stop-color="#BEBDFF"/>
<stop offset="1" stop-color="#FCBBDE"/>
</linearGradient>
<linearGradient id="paint1_linear_2_48" x1="134.967" y1="56.9427" x2="390.359" y2="267.745" gradientUnits="userSpaceOnUse">
<stop stop-color="#BEBDFF"/>
<stop offset="1" stop-color="#FCBBDE"/>
</linearGradient>
<linearGradient id="paint2_linear_2_48" x1="61.7959" y1="21.4072" x2="318.071" y2="180.4" gradientUnits="userSpaceOnUse">
<stop stop-color="#BEBDFF"/>
<stop offset="1" stop-color="#FCBBDE"/>
</linearGradient>
</defs>
</svg>
