<svg width="85" height="91" viewBox="0 0 85 91" fill="none" xmlns="http://www.w3.org/2000/svg">
<path d="M9.82131 76.8845C4.83001 70.7939 1.64013 63.4286 0.611795 55.6202C-0.416538 47.8119 0.757634 39.8714 4.00175 32.6953C7.24586 25.5193 12.4307 19.3933 18.9709 15.0092C25.5112 10.6251 33.1463 8.15734 41.0143 7.8846C40.8654 8.08066 40.1726 8.9933 40.1726 8.9933C34.1952 16.8591 30.3687 22.2908 26.2669 29.8497C23.3765 31.163 20.6783 32.8637 18.2465 34.905C17.4351 35.5795 16.6786 36.2774 15.9849 36.9724C6.69937 46.3498 4.50048 61.75 9.82131 76.8845Z" fill="white"/>
<path d="M76.6678 25.2512C71.7618 18.5145 64.979 13.3746 57.1679 10.4745C56.7632 11.2421 56.3516 12.0361 55.9215 12.8772C53.2356 18.1217 50.9829 23.5772 49.1857 29.189C49.9933 29.5358 50.7787 29.9322 51.5374 30.3761C55.9979 32.9866 59.3031 37.0705 60.8464 41.8738C63.6783 50.7042 58.5927 62.0862 50.3831 65.2957C48.1969 66.1505 46.0373 66.7053 44.052 66.9268C44.1242 68.3332 43.969 69.742 43.5924 71.0989C42.8732 73.6614 41.5131 75.3641 40.5175 76.611C39.7169 77.6138 39.1878 78.2775 38.8409 79.3676C38.6387 80.0068 38.5218 80.67 38.493 81.3399C38.3686 84.2866 40.0119 87.6637 42.3146 89.1949C43.2299 89.8026 44.4165 90.1634 45.8423 90.2653C46.2597 90.2957 46.6928 90.3104 47.1298 90.3104C49.6011 90.3104 52.4046 89.8252 55.7 88.8263C58.8562 87.8695 62.1399 86.3972 65.4588 84.4493C69.4597 82.0967 73.2823 79.4421 76.122 75.7141C81.6248 68.4795 84.6496 59.663 84.7475 50.5728C84.8455 41.4825 82.0114 32.6028 76.6658 25.2512H76.6678ZM69.8879 32.7396C70.5897 32.7024 71.2868 32.8742 71.8909 33.2333C72.4951 33.5924 72.9793 34.1227 73.2822 34.7571C73.585 35.3915 73.6931 36.1015 73.5926 36.7973C73.4921 37.4932 73.1876 38.1435 72.7176 38.6662C72.2476 39.1889 71.6332 39.5605 70.9522 39.7338C70.2711 39.9072 69.5539 39.8746 68.8914 39.6402C68.2288 39.4058 67.6506 38.9801 67.2299 38.417C66.8092 37.8538 66.5649 37.1785 66.5278 36.4764C66.4782 35.5352 66.8043 34.6127 67.4344 33.912C68.0645 33.2112 68.947 32.7895 69.8879 32.7396ZM59.8557 26.358C59.8248 25.7727 59.968 25.1913 60.2673 24.6874C60.5666 24.1836 61.0086 23.7798 61.5373 23.5272C62.066 23.2746 62.6577 23.1846 63.2375 23.2684C63.8174 23.3523 64.3594 23.6062 64.795 23.9982C65.2306 24.3902 65.5401 24.9027 65.6846 25.4707C65.8291 26.0387 65.8019 26.6369 65.6065 27.1894C65.4111 27.742 65.0564 28.2242 64.587 28.5751C64.1177 28.926 63.5549 29.1297 62.9698 29.1606C62.5812 29.1812 62.1924 29.125 61.8255 28.9952C61.4586 28.8654 61.1209 28.6645 60.8317 28.404C60.5425 28.1435 60.3074 27.8286 60.14 27.4772C59.9725 27.1258 59.8759 26.7448 59.8557 26.356V26.358ZM65.6303 72.9477C64.5878 73.0019 63.5528 72.7457 62.6559 72.2115C61.759 71.6772 61.0405 70.889 60.5914 69.9464C60.1422 69.0038 59.9825 67.9491 60.1324 66.9157C60.2823 65.8823 60.7351 64.9165 61.4336 64.1405C62.1321 63.3645 63.0448 62.8131 64.0565 62.5559C65.0682 62.2988 66.1334 62.3475 67.1174 62.6958C68.1014 63.0442 68.9601 63.6766 69.5849 64.5131C70.2098 65.3496 70.5726 66.3526 70.6277 67.3954C70.6639 68.0881 70.5634 68.7812 70.3318 69.435C70.1003 70.0889 69.7422 70.6907 69.2782 71.2061C68.8141 71.7215 68.2531 72.1404 67.6272 72.4389C67.0013 72.7374 66.3227 72.9096 65.6303 72.9458V72.9477ZM72.4464 55.6948C71.5488 55.7422 70.6574 55.5223 69.8847 55.0629C69.1121 54.6034 68.4929 53.9251 68.1056 53.1137C67.7183 52.3023 67.5802 51.3942 67.7088 50.5042C67.8374 49.6143 68.2268 48.7825 68.8279 48.114C69.4291 47.4455 70.2148 46.9703 71.0859 46.7485C71.9569 46.5267 72.8742 46.5683 73.7216 46.868C74.569 47.1677 75.3086 47.7121 75.8468 48.4322C76.385 49.1524 76.6976 50.0161 76.7452 50.914C76.8087 52.1182 76.3916 53.2984 75.5854 54.1949C74.7793 55.0914 73.6501 55.631 72.4464 55.6948Z" fill="white"/>
<path d="M55.995 0.310961C55.8519 0.0384431 55.2649 -0.081151 54.7936 0.059029C53.2581 0.527603 52.0499 1.80099 51.0318 2.97928L51.0161 2.99693C50.8489 3.19298 50.6856 3.38904 50.5262 3.5851C48.9936 5.47017 45.5375 10.0285 44.0726 11.9577C37.8679 20.1224 33.7944 25.8688 29.0851 35.004C27.9935 37.126 26.9809 39.2872 26.0474 41.4876C25.1381 43.6442 24.3081 45.8655 24.0533 48.1917C23.7985 50.5179 24.164 52.9833 25.483 54.9155C25.4154 54.8175 22.1072 57.8475 21.7457 58.2759C20.5614 59.6726 19.6197 61.2581 18.9598 62.9665C16.1181 70.3774 19.877 77.0747 20.8608 78.6843C25.5065 86.2825 33.767 87.6196 34.9713 87.7941C33.9816 85.3434 32.9723 81.6575 34.1707 77.8834C35.3887 74.0476 37.9541 73.0516 38.8742 69.7736C39.5484 67.3709 39.3926 63.5468 34.9713 57.6603C35.8532 57.177 37.519 56.3065 38.1491 54.6567C40.8125 47.6526 41.1319 39.8437 43.0741 32.6161C45.1226 25.0131 47.9684 17.6479 51.5639 10.6431C52.5542 8.70934 53.5697 6.79061 54.6104 4.88691C54.9955 4.18503 55.4207 3.50275 55.7314 2.76264C56.0253 2.0539 56.3193 1.20204 56.0498 0.439377C56.0348 0.395242 56.0165 0.352313 55.995 0.310961Z" fill="white"/>
</svg>
